<svg xmlns="http://www.w3.org/2000/svg" viewBox="0 0 256 256" role="img" aria-label="Taroudant Heritage Shield">
  <defs>
    <linearGradient id="g" x1="0" y1="0" x2="1" y2="1">
      <stop offset="0" stop-color="#7a4b2e"/>
      <stop offset="1" stop-color="#4b2a1a"/>
    </linearGradient>
  </defs>
  <rect width="256" height="256" rx="56" fill="#f7f1e6"/>
  <path
    d="M128 22
       C98 40 70 43 46 48
       V118
       C46 178 88 214 128 234
       C168 214 210 178 210 118
       V48
       C186 43 158 40 128 22Z"
    fill="url(#g)"
    stroke="#2b1a12"
    stroke-width="10"
    stroke-linejoin="round"
  />
  <!-- Walls / heritage motif -->
  <path d="M74 150 H182" stroke="#f7f1e6" stroke-width="10" stroke-linecap="round"/>
  <path d="M84 140 V116 H108 V140" fill="#f7f1e6"/>
  <path d="M118 140 V104 H148 V140" fill="#f7f1e6"/>
  <path d="M152 140 V120 H172 V140" fill="#f7f1e6"/>
  <path d="M112 92 L128 62 L144 92 Z" fill="#f7f1e6"/>
  <!-- Shield highlight -->
  <path d="M128 34
           C103 49 81 52 62 56
           V116
           C62 170 96 202 128 218"
        fill="none" stroke="#ffffff" stroke-opacity="0.35" stroke-width="8"/>
</svg>

